<svg version="1.1" id="Livello_1" xmlns="http://www.w3.org/2000/svg" xmlns:xlink="http://www.w3.org/1999/xlink" x="0px" y="0px"
	 width="160px" height="80px" viewBox="0 0 160 80" style="enable-background:new 0 0 160 80;" xml:space="preserve">
<g transform="matrix( 0.2930908203125, 0, 0, 0.2930908203125, -8.65,-81.2) ">
	<g>
		<g id="Layer0_0_MEMBER_0_MEMBER_0_FILL">
			<path d="M352.4,491.1h-0.2l-8.9,20.7h3.2l1.2-2.9h9l1.2,2.9h3.3L352.4,491.1 M355.5,506.1h-6.6l3.4-8
				C354.5,503.5,355.6,506.1,355.5,506.1 M332.9,491.5h-3.2v20.3h3.2V491.5 M310.1,491.5h-3.2v20.3H319V509h-8.9V491.5 M287.7,491.1
				h-0.2l-8.9,20.7h3.2l1.2-2.9h9.1l1.1,2.9h3.4L287.7,491.1 M290.9,506.1h-6.6l3.4-8C289.8,503.5,290.9,506.1,290.9,506.1
				 M257.3,494.4h6v17.4h3.2v-17.4h6v-2.9h-15.2V494.4 M246.8,491.5h-3.2v20.3h3.2V491.5z"/>
		</g>
	</g>
</g>
<g transform="matrix( 0.2930908203125, 0, 0, 0.2930908203125, -8.65,-81.2) ">
	<g>
		<g id="Layer0_0_MEMBER_0_MEMBER_1_FILL">
			<path d="M461.9,323.6v19.1h19.4v120.7H505V342.8h19.4v-19.1L461.9,323.6L461.9,323.6z"/>
		</g>
	</g>
</g>
<g transform="matrix( 0.2930908203125, 0, 0, 0.2930908203125, -8.65,-81.2) ">
	<g>
		<g id="Layer0_0_MEMBER_0_MEMBER_2_FILL">
			<path d="M401.8,382.8v-40h32.6v-19.1h-56.1v139.7h56.1v-19.1h-32.6v-42.5h23.4v-18.9h-23.4V382.8z"/>
		</g>
	</g>
</g>
<g transform="matrix( 0.2930908203125, 0, 0, 0.2930908203125, -8.65,-81.2) ">
	<g>
		<g id="Layer0_0_MEMBER_0_MEMBER_3_FILL">
			<path d="M351.1,323.6H329l-16.5,97.5h-0.2l-16.1-97.5h-23.9l26.6,139.8h25.6L351.1,323.6z"/>
		</g>
	</g>
</g>
<g transform="matrix( 0.2930908203125, 0, 0, 0.2930908203125, -8.65,-81.2) ">
	<g>
		<g id="Layer0_0_MEMBER_0_MEMBER_4_FILL">
			<path d="M240.6,332.6c-6.2-7.1-15.2-10.6-27.2-10.6c-11.9,0-20.9,3.5-27,10.6c-5.6,6.5-8.5,15.6-8.5,27.1v67.7
				c0,11.4,2.8,20.4,8.5,27c6.1,7.2,15.1,10.8,27,10.8c12,0,21-3.6,27.2-10.8c5.6-6.5,8.4-15.5,8.4-27v-67.6
				C249,348.2,246.2,339.2,240.6,332.6 M213.3,341.6c4.1,0,7.2,1.4,9.3,4c1.9,2.5,2.9,5.9,2.9,10.4v75.1c0,4.4-1,7.9-2.9,10.4
				c-2.1,2.7-5.2,4-9.3,4c-4,0-7-1.3-9.1-4c-1.9-2.5-2.9-6-2.9-10.4V356c0-4.4,1-7.9,2.9-10.4C206.4,342.9,209.4,341.6,213.3,341.6z
				"/>
		</g>
	</g>
</g>
<g transform="matrix( 0.2930908203125, 0, 0, 0.2930908203125, -8.65,-81.2) ">
	<g>
		<g id="Layer0_0_MEMBER_0_MEMBER_5_FILL">
			<path d="M80.7,352.7v4.8c0,7.6,1.6,14.1,4.8,19.7c2.6,4.5,7.5,10.4,14.8,17.6l13.8,13.8c3.8,3.6,6.5,6.7,8,9.4
				c1.7,3,2.5,6.5,2.5,10.3v5.4c0,3.9-0.9,6.9-2.6,9c-1.8,2.3-4.5,3.4-8.1,3.4c-7.7,0-11.5-4.1-11.5-12.4v-19.1H80.5v18.7
				c0,9.8,2.5,17.4,7.6,22.8c5.6,6,14.1,9,25.5,9c11.5,0,20.2-3.1,26.1-9.2c5.4-5.7,8.1-13.5,8.1-23.6v-6.8c0-7.2-1.6-13.6-4.7-19
				c-2.5-4.3-7.2-10-14.3-17.3l-15-14.8c-4-3.9-6.7-6.9-8.1-9c-2-3.1-3-6.4-3-10v-2.9c0-3.8,1-6.7,3.1-8.7c1.9-1.9,4.6-2.9,8-2.9
				c7.4,0,11.1,4,11.1,12v12.2h21.4v-11.4c0-10.4-2.5-18.3-7.6-23.5c-5.4-5.5-13.8-8.3-25.2-8.3c-10.9,0-19.3,3-25.1,8.9
				C83.4,336.2,80.7,343.5,80.7,352.7z"/>
		</g>
	</g>
</g>
</svg>
